<?xml version="1.0" standalone="no"?>
<!DOCTYPE svg PUBLIC "-//W3C//DTD SVG 20010904//EN"
 "http://www.w3.org/TR/2001/REC-SVG-20010904/DTD/svg10.dtd">
<svg version="1.0" xmlns="http://www.w3.org/2000/svg"
 width="500.000000pt" height="500.000000pt" viewBox="0 0 500.000000 500.000000"
 preserveAspectRatio="xMidYMid meet">

<g transform="translate(0.000000,500.000000) scale(0.100000,-0.100000)"
fill="#000000" stroke="none">
<path d="M860 3410 l0 -90 28 0 c15 0 57 -3 95 -7 l67 -6 0 97 0 96 -95 0 -95
0 0 -90z"/>
<path d="M1190 3405 l0 -95 105 0 105 0 0 95 0 95 -105 0 -105 0 0 -95z"/>
<path d="M1530 3405 l0 -95 105 0 105 0 0 95 0 95 -105 0 -105 0 0 -95z"/>
<path d="M1880 3405 l0 -95 105 0 105 0 0 95 0 95 -105 0 -105 0 0 -95z"/>
<path d="M2220 3405 l0 -95 105 0 105 0 0 95 0 95 -105 0 -105 0 0 -95z"/>
<path d="M2570 3405 l0 -95 105 0 105 0 0 95 0 95 -105 0 -105 0 0 -95z"/>
<path d="M2910 3405 l0 -95 105 0 105 0 0 95 0 95 -105 0 -105 0 0 -95z"/>
<path d="M3260 3405 l0 -95 105 0 105 0 0 95 0 95 -105 0 -105 0 0 -95z"/>
<path d="M3600 3405 l0 -95 105 0 105 0 0 95 0 95 -105 0 -105 0 0 -95z"/>
<path d="M3950 3404 l0 -97 68 6 c37 4 79 7 95 7 l27 0 0 90 0 90 -95 0 -95 0
0 -96z"/>
<path d="M1294 2991 c-50 -31 -59 -67 -59 -241 0 -170 9 -202 62 -237 38 -25
139 -24 177 0 35 23 56 73 56 132 l0 45 -54 0 -55 0 -3 -51 c-3 -59 -25 -83
-52 -60 -13 11 -16 40 -16 177 0 149 2 164 19 173 29 16 50 -7 53 -59 l3 -45
53 -3 52 -3 0 46 c0 59 -25 112 -61 130 -41 22 -137 19 -175 -4z"/>
<path d="M1597 3003 c-4 -3 -7 -118 -7 -255 l0 -248 55 0 55 0 0 255 0 255
-48 0 c-27 0 -52 -3 -55 -7z"/>
<path d="M1787 3004 c-4 -4 -7 -119 -7 -256 l0 -248 50 0 50 0 1 128 0 127 51
-127 51 -128 39 0 38 0 0 255 0 255 -45 0 -44 0 -3 -122 -3 -123 -52 120 c-50
117 -52 120 -85 123 -19 2 -37 0 -41 -4z"/>
<path d="M2137 3003 c-4 -3 -7 -118 -7 -255 l0 -248 115 0 115 0 0 40 0 40
-60 0 -61 0 3 73 3 72 43 3 c41 3 42 4 42 37 0 33 -1 34 -42 37 l-43 3 -3 63
-3 62 61 0 60 0 0 40 0 40 -108 0 c-60 0 -112 -3 -115 -7z"/>
<path d="M2420 2913 c0 -54 -3 -169 -7 -255 l-6 -158 41 0 42 0 1 88 c1 48 4
119 8 157 l6 70 8 -45 c4 -25 17 -96 28 -157 l21 -113 33 0 c18 0 35 6 37 13
3 6 16 77 29 157 23 137 24 142 31 95 3 -28 7 -98 7 -157 l1 -108 40 0 40 0 0
68 c0 37 -3 152 -7 255 l-6 188 -55 -3 -56 -3 -27 -132 c-15 -73 -29 -138 -31
-145 -3 -7 -15 44 -27 112 -13 69 -25 135 -28 148 -5 20 -11 22 -64 22 l-59 0
0 -97z"/>
<path d="M2925 2998 c-4 -12 -95 -485 -95 -495 0 -2 24 -3 52 -1 l53 3 8 53 9
52 38 0 38 0 7 -55 6 -55 50 0 c38 0 49 3 49 16 0 14 -71 408 -85 472 -5 20
-11 22 -66 22 -38 0 -61 -4 -64 -12z m81 -251 l7 -77 -28 0 c-23 0 -26 3 -22
23 3 12 9 53 13 91 8 84 20 70 30 -37z"/>
<path d="M3170 2965 l0 -45 40 0 40 0 0 -210 0 -210 55 0 55 0 0 210 0 210 35
0 c35 0 35 0 35 45 l0 45 -130 0 -130 0 0 -45z"/>
<path d="M3480 2755 l0 -255 55 0 55 0 0 255 0 255 -55 0 -55 0 0 -255z"/>
<path d="M3731 2998 c-13 -7 -34 -26 -45 -41 -19 -25 -21 -45 -24 -184 -3
-127 0 -164 13 -200 20 -53 60 -76 130 -77 99 -2 142 38 147 135 l3 54 -52 3
-53 3 0 -41 c0 -51 -15 -80 -40 -80 -33 0 -40 33 -40 189 0 123 3 152 16 165
8 9 19 16 24 16 22 0 40 -34 40 -76 l0 -44 49 0 c28 0 53 4 56 10 14 22 -8
113 -35 144 -25 27 -34 31 -96 34 -43 2 -78 -2 -93 -10z"/>
<path d="M2913 2439 c-59 -29 -85 -75 -91 -159 -4 -64 -6 -68 -31 -73 -37 -8
-76 -40 -95 -81 -12 -26 -16 -66 -16 -175 l0 -141 -30 0 c-23 0 -33 6 -40 24
-14 38 -58 66 -102 66 -32 0 -47 -7 -74 -34 -31 -31 -34 -40 -34 -91 0 -50 3
-60 30 -85 58 -55 139 -43 176 26 15 27 24 34 44 32 25 -3 25 -3 28 -125 l3
-123 -911 0 c-903 0 -910 0 -910 -20 0 -20 7 -20 920 -20 917 0 919 0 930 -21
14 -26 68 -59 98 -59 20 0 22 -5 22 -50 0 -59 19 -111 48 -132 12 -8 29 -39
39 -68 13 -40 27 -61 52 -77 l34 -23 592 0 592 0 34 23 c22 15 40 39 52 72 11
28 23 57 28 65 36 61 43 82 48 135 6 58 7 59 39 66 44 9 86 50 101 98 6 21 11
88 11 150 l0 111 25 0 c17 0 29 -9 40 -30 33 -63 117 -79 166 -31 26 26 29 36
29 91 0 53 -3 64 -26 85 -57 53 -142 37 -170 -31 -12 -27 -20 -35 -37 -32 -21
3 -22 8 -27 153 -7 187 -25 226 -115 245 -29 6 -30 8 -36 75 -7 88 -28 129
-82 157 l-42 23 -635 3 c-631 3 -635 3 -677 -19z m1316 -29 c38 -11 81 -46 81
-67 0 -11 -129 -13 -720 -13 -591 0 -720 2 -720 13 0 17 38 53 70 66 34 13
1243 15 1289 1z m89 -600 c2 -324 -1 -487 -8 -513 -7 -25 -22 -45 -43 -57 -31
-19 -55 -20 -683 -20 -641 0 -652 0 -677 20 -15 12 -31 38 -37 58 -11 41 -15
974 -3 985 3 4 331 6 727 5 l721 -3 3 -475z m-1498 -6 l0 -365 -22 6 c-13 4
-35 20 -50 36 l-28 29 0 301 0 301 29 29 c16 16 39 29 50 29 21 0 21 -2 21
-366z m1610 338 c39 -39 42 -73 38 -372 -2 -184 -7 -261 -16 -277 -12 -22 -60
-53 -82 -53 -7 0 -10 117 -10 365 0 363 0 365 21 365 11 0 33 -13 49 -28z
m-1870 -302 c43 -43 11 -120 -49 -120 -63 0 -98 66 -61 113 27 34 80 37 110 7z
m2148 4 c27 -19 30 -78 5 -106 -21 -23 -74 -23 -101 0 -74 62 16 162 96 106z
m-468 -704 c-6 -12 -26 -30 -43 -40 -31 -19 -55 -20 -595 -20 -604 0 -610 0
-646 51 -9 13 -16 29 -16 36 0 18 1303 24 1308 6 2 -7 -2 -21 -8 -33z"/>
<path d="M3165 2057 c-57 -15 -137 -98 -154 -159 -19 -66 -10 -139 23 -188 57
-86 168 -134 258 -110 235 64 237 394 3 459 -47 13 -76 13 -130 -2z m142 -39
c52 -22 103 -79 119 -135 14 -48 14 -58 0 -106 -25 -85 -110 -147 -200 -147
-44 1 -107 32 -138 68 -59 70 -64 184 -11 249 57 71 157 102 230 71z"/>
<path d="M3868 2056 c-55 -20 -85 -42 -118 -88 -105 -145 -27 -330 154 -368
99 -20 188 24 241 121 71 129 8 285 -134 334 -54 18 -94 19 -143 1z m160 -47
c53 -26 98 -91 108 -156 18 -120 -103 -237 -229 -220 -91 12 -167 106 -167
208 0 67 45 133 113 164 64 31 117 31 175 4z"/>
<path d="M3413 1485 c-8 -24 41 -61 100 -75 36 -9 59 -9 95 -1 62 16 128 59
113 74 -8 8 -24 4 -58 -13 -70 -35 -139 -38 -183 -8 -58 40 -60 40 -67 23z"/>
<path d="M1271 2088 c-24 -128 -46 -246 -48 -261 l-6 -28 54 3 54 3 8 53 9 52
38 0 38 0 9 -52 8 -53 53 -3 53 -3 -7 38 c-4 21 -26 137 -48 258 l-42 220 -65
3 -65 3 -43 -233z m123 -9 c4 -39 10 -77 13 -85 4 -10 -4 -14 -27 -14 -25 0
-30 3 -26 18 2 9 8 47 12 85 3 37 10 67 14 67 4 0 11 -32 14 -71z"/>
<path d="M1597 2313 c-4 -3 -7 -120 -7 -260 l0 -253 60 0 60 0 0 260 0 260
-53 0 c-30 0 -57 -3 -60 -7z"/>
</g>
</svg>
